#!OML:ASF G:\JayActor3\Patient Classification 1\Patient 1\Session 5\male.ASF
:FULLY-SPECIFIED
:DEGREES
370
root 5.61651 16.8347 -8.25827 378.425 -72.7888 -19.297
lowerback 17.676 -0.603075 3.18354
upperback 12.1725 -1.18955 3.49004
thorax 3.21933 -0.889584 2.05618
lowerneck -3.70248 -2.42658 4.87258
upperneck 37.6155 -10.9863 10.9234
head 14.108 -3.51895 2.038
rclavicle 3.97569e-014 3.18055e-015
rhumerus -9.68765 -4.50693 -29.0522
rradius 40.4691
rwrist -5.44554
rhand -24.571 -28.745
rfingers 7.12502
rthumb 1.92591 -58.7161
lclavicle 3.97569e-014 3.18055e-015
lhumerus 18.0708 8.87004 34.8306
lradius 36.1912
lwrist 14.2765
lhand -28.1839 32.6266
lfingers 7.12502
lthumb -1.5635 62.6006
rfemur -16.4578 -13.6177 24.3014
rtibia 38.0832
rfoot -23.6653 -22.9214
rtoes 8.91653
lfemur -59.4412 32.1543 -9.75316
ltibia 89.3392
lfoot 13.6192 -6.70018
ltoes 2.09664
371
root 5.6241 16.8024 -8.28854 378.494 -72.522 -19.3376
lowerback 18.0347 -0.655899 3.07091
upperback 12.1083 -1.25938 3.81382
thorax 2.97811 -0.950481 2.48349
lowerneck -3.68122 -2.59089 4.65185
upperneck 37.7046 -11.0808 10.6027
head 14.1252 -3.61501 1.93743
rclavicle -2.68359e-014 3.85642e-014
rhumerus -8.96795 -7.81958 -28.9738
rradius 40.5893
rwrist -7.74056
rhand -26.0584 -28.6986
rfingers 7.12502
rthumb 0.489377 -58.6778
lclavicle -2.68359e-014 3.85642e-014
lhumerus 18.1382 11.3569 36.0176
lradius 37.034
lwrist 16.762
lhand -29.0455 32.0528
lfingers 7.12502
lthumb -2.39565 62.0191
rfemur -16.928 -13.7986 24.5344
rtibia 38.7678
rfoot -23.9438 -22.9651
rtoes 8.84942
lfemur -60.6771 32.1656 -9.91749
ltibia 90.348
lfoot 13.9358 -6.83393
ltoes 2.40633
372
root 5.6316 16.769 -8.31563 378.543 -72.2968 -19.3655
lowerback 18.3879 -0.707249 2.94675
upperback 12.0545 -1.3307 4.1284
thorax 2.75343 -1.01235 2.90975
lowerneck -3.65462 -2.7365 4.42479
upperneck 37.8065 -11.1415 10.2604
head 14.1436 -3.69983 1.83388
rclavicle 2.90226e-014 -4.6118e-014
rhumerus -8.2149 -11.0127 -28.9723
rradius 40.9061
rwrist -10.3723
rhand -27.5256 -28.5595
rfingers 7.12502
rthumb -0.927734 -58.5372
lclavicle 2.90226e-014 -4.6118e-014
lhumerus 18.1637 13.705 37.1398
lradius 38.0619
lwrist 19.5842
lhand -29.8841 31.4782
lfingers 7.12502
lthumb -3.20548 61.4339
rfemur -17.4016 -13.9623 24.7356
rtibia 39.4761
rfoot -24.2161 -22.991
rtoes 8.76862
lfemur -61.7763 32.1253 -10.0641
ltibia 91.2092
lfoot 14.2012 -6.96226
ltoes 2.70926
373
root 5.63901 16.7348 -8.33948 378.575 -72.1139 -19.3822
lowerback 18.735 -0.757491 2.81176
upperback 12.0113 -1.40421 4.43311
thorax 2.54584 -1.07555 3.33402
lowerneck -3.62273 -2.86299 4.19111
upperneck 37.9213 -11.1681 9.89761
head 14.1636 -3.77342 1.72775
rclavicle 3.06128e-014 -3.89618e-014
rhumerus -7.42313 -14.0722 -29.0559
rradius 41.4151
rwrist -13.3262
rhand -28.9627 -28.2917
rfingers 7.12502
rthumb -2.31569 -58.2589
lclavicle 3.06128e-014 -3.89618e-014
lhumerus 18.1377 15.9245 38.1983
lradius 39.2741
lwrist 22.739
lhand -30.7125 30.9066
lfingers 7.12502
lthumb -4.00552 60.8487
rfemur -17.876 -14.1073 24.905
rtibia 40.2023
rfoot -24.4805 -23.0011
rtoes 8.67488
lfemur -62.7331 32.0338 -10.1901
ltibia 91.9199
lfoot 14.4136 -7.09209
ltoes 2.96973
374
root 5.64634 16.7 -8.36008 378.587 -71.9735 -19.3825
lowerback 19.0746 -0.806115 2.66683
upperback 11.9798 -1.47949 4.72612
thorax 2.35709 -1.13984 3.75378
lowerneck -3.58804 -2.9711 3.95176
upperneck 38.0482 -11.1633 9.51746
head 14.1858 -3.83644 1.61973
rclavicle 2.06736e-014 -2.78299e-014
rhumerus -6.59043 -16.9898 -29.2305
rradius 42.108
rwrist -16.5721
rhand -30.3713 -27.8961
rfingers 7.12502
rthumb -3.67599 -57.8442
lclavicle 2.06736e-014 -2.78299e-014
lhumerus 18.0591 18.0325 39.1984
lradius 40.664
lwrist 26.2035
lhand -31.5262 30.3203
lfingers 7.12502
lthumb -4.79125 60.2461
rfemur -18.3492 -14.2348 25.0406
rtibia 40.9412
rfoot -24.7354 -22.9937
rtoes 8.57116
lfemur -63.5424 31.89 -10.2931
ltibia 92.4785
lfoot 14.5759 -7.22183
ltoes 3.19632
375
root 5.65361 16.6649 -8.3774 378.584 -71.8743 -19.3704
lowerback 19.4061 -0.85376 2.51483
upperback 11.9598 -1.55716 5.00701
thorax 2.18726 -1.20545 4.16704
lowerneck -3.5502 -3.06102 3.70721
upperneck 38.1864 -11.1277 9.1214
head 14.2103 -3.88918 1.51017
rclavicle -3.69739e-014 1.03368e-014
rhumerus -5.71619 -19.7598 -29.5034
rradius 42.9765
rwrist -20.0673
rhand -31.7444 -27.3549
rfingers 7.12502
rthumb -5.00192 -57.2758
lclavicle -3.69739e-014 1.03368e-014
lhumerus 17.924 20.0409 40.1431
lradius 42.2289
lwrist 29.9595
lhand -32.3382 29.7452
lfingers 7.12502
lthumb -5.57529 59.6518
rfemur -18.8086 -14.3454 25.1446
rtibia 41.6638
rfoot -24.9649 -22.9765
rtoes 8.45253
lfemur -64.2019 31.6922 -10.3683
ltibia 92.8786
lfoot 14.7002 -7.3478
ltoes 3.38785
